<svg xmlns="http://www.w3.org/2000/svg" viewBox="0 0 100 100">
<g><g transform="scale(0.2)"><path fill="#c0392b" d="M21.094,12.25l97.688,72.188L50.5,126.875l-35.625-16.906l-14.875,8L30.812,149.5l0.125-0.062 l11.094,42.406l14.531-8.625L60.406,144l71.531-36.688l11.531,120.938l22.219-13.156l17.906-133.938 c15.75-9.197,38.935-23.674,43.474-26.375c16.597-9.874,19.091-42.826-20.349-24.605c-4.705,2.174-28.523,16.528-38.906,23.449 L43.781,0L21.094,12.25z" /></g>
<animateTransform attributeName="transform"
    type="translate"
    from="-50 30"
    to="100 -30"
    begin="0s"
    dur="2s"
    repeatCount="indefinite"
  /></g>
<g transform="scale(0.07) translate(-130 850)"><path fill="#e67e22" d="M208.11,545.404h383.781V146.87h-85.543v-35.584c0-31.259-25.43-56.689-56.688-56.689h-99.311 c-31.263,0-56.692,25.43-56.692,56.689v35.584h-85.545L208.11,545.404L208.11,545.404z M447.274,413.506l-23.005,18.05 l1.827,29.184c0.375,5.974-2.677,11.646-7.867,14.624c-2.429,1.394-5.134,2.09-7.829,2.09c-3.066,0-6.122-0.896-8.768-2.671 l-24.276-16.301l-27.188,10.755c-5.571,2.202-11.904,1.051-16.342-2.964c-4.438-4.017-6.213-10.208-4.574-15.965l8-28.122 l-18.632-22.536c-3.813-4.615-4.677-10.994-2.23-16.455c2.447-5.461,7.79-9.063,13.769-9.283l29.221-1.083l15.676-24.684 c3.208-5.053,8.997-7.846,14.96-7.207c5.952,0.642,11.023,4.604,13.084,10.227l10.059,27.455l28.322,7.28 c5.798,1.491,10.249,6.144,11.476,12.004C454.183,403.763,451.983,409.81,447.274,413.506z M523.067,196.031 c27.894,0,45.919,10.711,45.919,27.292c0,16.578-18.021,27.289-45.919,27.289c-27.89,0-45.915-10.711-45.915-27.289 C477.153,206.743,495.178,196.031,523.067,196.031z M325.11,111.285c0-13.914,11.321-25.232,25.235-25.232h99.311 c13.913,0,25.232,11.322,25.232,25.232v35.584H325.11V111.285z M246.416,290.873l43.865-24.364c3.646-2.025,7.949-2.52,11.96-1.375 c4.011,1.148,7.402,3.841,9.427,7.487l24.364,43.865c4.219,7.594,1.481,17.17-6.112,21.389l-43.865,24.363 c-2.355,1.309-4.989,1.979-7.638,1.979c-1.45,0-2.904-0.198-4.322-0.604c-4.011-1.147-7.402-3.841-9.428-7.486l-24.364-43.865 C236.085,304.664,238.822,295.088,246.416,290.873z M700,187.4v317.468c0,22.348-18.183,40.534-40.533,40.534h-36.12V146.87h36.12 C681.817,146.87,700,165.052,700,187.4z M176.652,545.404h-36.119c-22.351,0-40.533-18.186-40.533-40.533V187.4 c0-22.347,18.182-40.533,40.533-40.533h36.12L176.652,545.404L176.652,545.404z" /></g>
<rect x="30" y="40" width="40" height="20" fill="#EFEFEF"/>
<path d="M79.869,76.395c-1.978-0.995-4.218-2.125-4.689-4.603c-0.396-2.087,0.062-4.982,0.504-7.783 c0.465-2.939,0.958-6.091,0.46-8.629c6.022-5.888,9.722-13.795,9.722-22.486C85.865,14.756,69.777,0,50.002,0 C30.225,0,14.135,14.756,14.135,32.894c0,10.195,5.084,19.323,13.049,25.361c-0.053,2.145,0.422,4.605,0.895,7.031 c0.682,3.496,1.386,7.111,0.448,9.413c-0.825,2.027-2.062,2.931-4.009,2.931l0,0c-1.31,0-2.706-0.404-3.939-0.761 c-1.011-0.291-1.884-0.543-2.612-0.543c-1.015,0-1.748,0.531-1.96,1.425c-0.155,0.656-0.146,1.683,0.778,2.853 c1.715,2.167,5.846,3.803,9.607,3.802c5.034,0,8.463-2.687,9.408-7.373c0.379-1.88,0.972-3.663,1.625-5.343 c0.192,1.656,0.436,3.256,0.657,4.703c0.076,0.505,0.15,0.992,0.22,1.457c0.74,5.02-1.639,7.879-3.375,9.967 c-1.145,1.378-2.57,3.091-0.99,4.596c0.784,0.744,1.781,1.138,2.883,1.138c1.653,0,3.401-0.878,4.922-2.471 c2.964-3.107,4.508-8.213,4.235-14.007c-0.188-3.997,1.644-6.672,3.426-8.989c0.836,2.138,1.56,4.566,1.02,7.613 c-2.252,12.719-2.22,20.246,0.099,23.013C51.229,99.554,52.17,100,53.243,100h0.001c0.117,0,0.237-0.005,0.359-0.016 c0.877-0.077,1.637-0.473,2.196-1.143c1.847-2.21,1.397-7.164,0.876-12.901c-0.395-4.327-0.801-8.805-0.094-11.663 c0.542-2.195,1.327-3.868,2.177-5.229c0.433,1.582,0.676,3.443,0.292,5.901c-0.743,4.784,0.483,9.591,3.284,12.86 c1.707,1.994,3.77,3.137,5.66,3.138h0.001c0.823,0,1.576-0.216,2.236-0.638c0.638-0.409,0.852-0.935,0.918-1.304 c0.198-1.09-0.547-2.084-1.576-3.459c-1.565-2.092-3.708-4.957-3.093-8.962c0.235-1.53,0.726-3.305,1.243-5.182 c0.148-0.541,0.302-1.095,0.451-1.658c0.107,0.608,0.2,1.247,0.26,1.958c0.657,7.799,5.747,10.565,9.905,10.565h0.001 c2.286,0,4.044-0.845,4.48-2.154C83.458,78.203,81.551,77.242,79.869,76.395z M49.998,58.724c-9.952,0-16.757-0.582-16.757-7.186 c0-6.608,6.805-7.199,16.757-7.199c9.955,0,16.758,0.591,16.758,7.199C66.756,58.142,59.953,58.724,49.998,58.724z M57.231,48.487 c-1.157,0-2.091,1.328-2.091,2.967c0,1.64,0.934,2.967,2.091,2.967c1.15,0,2.087-1.327,2.087-2.967 C59.318,49.815,58.382,48.487,57.231,48.487z M42.768,48.487c-1.149,0-2.088,1.328-2.088,2.967c0,1.64,0.938,2.967,2.088,2.967 c1.158,0,2.092-1.327,2.092-2.967C44.859,49.815,43.926,48.487,42.768,48.487z" fill="#34495e"/>
<circle cx="40" cy="17" r="7"  fill="#2980b9" /><circle cx="25" cy="25" r="3" fill="#3498db"/>
</svg>
